<svg version="1.2" xmlns="http://www.w3.org/2000/svg" viewBox="0 0 450 200" width="450" height="200">
	<style>
		.s0 { fill: #fa5e00 } 
		.s1 { fill: #333333 } 
	</style>
	<path class="s0" d="m85.38 66.58h33.79v7.04c0 14.77-11.99 26.76-26.75 26.76h-7.04z"/>
	<path class="s0" d="m46.92 66.58v66.84c18.67 0 33.8-15.13 33.8-33.8v-33.04z"/>
	<path class="s0" d="m85.38 99.62h7.04c14.77 0 26.75 11.99 26.75 26.76v7.04h-33.79z"/>
	<g>
		<path class="s1" d="m145.33 85.63v22.53h9v6.36h-16.51v-28.89c0 0 7.51 0 7.51 0z"/>
		<path class="s1" d="m156.32 100.08q0-3.22 1.19-6 1.19-2.78 3.29-4.85 2.11-2.06 5.04-3.23 2.93-1.17 6.46-1.17 3.48 0 6.43 1.17 2.95 1.17 5.08 3.23 2.13 2.07 3.31 4.85 1.19 2.78 1.19 6 0 3.22-1.19 5.99-1.18 2.78-3.31 4.85-2.13 2.07-5.08 3.24-2.95 1.16-6.43 1.17-3.53-0.01-6.46-1.17-2.93-1.17-5.04-3.24-2.1-2.07-3.29-4.85-1.19-2.78-1.19-5.99zm7.86 0q0 1.72 0.65 3.18 0.65 1.45 1.76 2.53 1.11 1.07 2.59 1.66 1.47 0.6 3.12 0.6 1.64 0 3.12-0.6 1.48-0.59 2.61-1.66 1.12-1.08 1.78-2.53 0.65-1.46 0.65-3.18 0-1.73-0.65-3.18-0.66-1.46-1.78-2.53-1.14-1.07-2.61-1.67-1.47-0.59-3.12-0.59-1.65 0-3.12 0.59-1.48 0.6-2.59 1.67-1.11 1.07-1.76 2.53-0.65 1.45-0.65 3.18z"/>
		<path class="s1" d="m217.08 114.52h-9.35l-7.16-11.11v11.11h-7.51v-28.88h11.69q2.41 0 4.21 0.7 1.8 0.71 2.97 1.94 1.17 1.22 1.76 2.83 0.59 1.61 0.59 3.45 0 3.3-1.59 5.35-1.59 2.05-4.69 2.77c0 0 9.08 11.84 9.08 11.84zm-16.51-15.98h1.42q2.22 0 3.41-0.91 1.18-0.92 1.18-2.65 0-1.72-1.18-2.64-1.19-0.92-3.41-0.92h-1.42c0 0 0 7.12 0 7.12z"/>
		<path class="s1" d="m236.66 91.99h-8.93v4.83h8.43v6.36h-8.43v4.98h8.93v6.36h-16.44v-28.89h16.44c0 0 0 6.36 0 6.36z"/>
		<path class="s1" d="m240.76 114.52l4.9-28.89h7.43l5.79 15.41 5.75-15.41h7.43l4.9 28.89h-7.47l-2.49-16.63-6.82 16.63h-2.99l-6.47-16.63-2.49 16.63c0 0-7.47 0-7.47 0z"/>
		<path class="s1" d="m289.22 85.63v22.53h9v6.36h-16.51v-28.89c0 0 7.51 0 7.51 0z"/>
		<path class="s1" d="m300.22 100.08q0-3.22 1.18-6 1.19-2.78 3.3-4.85 2.1-2.06 5.04-3.23 2.93-1.17 6.45-1.17 3.49 0 6.44 1.17 2.95 1.17 5.07 3.23 2.13 2.07 3.32 4.85 1.19 2.78 1.19 6 0 3.22-1.19 5.99-1.19 2.78-3.32 4.85-2.12 2.07-5.07 3.24-2.95 1.16-6.44 1.17-3.52-0.01-6.45-1.17-2.94-1.17-5.04-3.24-2.11-2.07-3.3-4.85-1.18-2.78-1.18-5.99zm7.85 0q0 1.72 0.65 3.18 0.65 1.45 1.76 2.53 1.11 1.07 2.59 1.66 1.47 0.6 3.12 0.6 1.65 0 3.12-0.6 1.48-0.59 2.61-1.66 1.13-1.08 1.78-2.53 0.65-1.46 0.65-3.18 0-1.73-0.65-3.18-0.65-1.46-1.78-2.53-1.13-1.07-2.61-1.67-1.47-0.59-3.12-0.59-1.65 0-3.12 0.59-1.48 0.6-2.59 1.67-1.11 1.07-1.76 2.53-0.65 1.45-0.65 3.18z"/>
		<path class="s1" d="m351.01 98.35h14.91q0 2.3-0.19 4.18-0.2 1.88-0.77 3.49-0.8 2.26-2.18 4-1.38 1.74-3.24 2.91-1.86 1.17-4.08 1.78-2.22 0.61-4.68 0.62-3.37-0.01-6.14-1.12-2.78-1.11-4.77-3.12-2-2.01-3.11-4.82-1.11-2.82-1.11-6.23 0-3.37 1.09-6.19 1.1-2.81 3.11-4.81 2.01-1.99 4.84-3.1 2.84-1.11 6.32-1.11 4.52 0 7.93 1.95 3.41 1.96 5.41 6.06l-7.13 2.95q-1-2.38-2.59-3.41-1.59-1.04-3.62-1.04-1.68 0-3.06 0.63-1.38 0.64-2.36 1.81-0.97 1.16-1.53 2.81-0.56 1.65-0.55 3.68-0.01 1.84 0.47 3.41 0.48 1.57 1.44 2.72 0.96 1.15 2.38 1.78 1.41 0.63 3.29 0.63 1.11 0 2.15-0.25 1.03-0.25 1.86-0.8 0.82-0.56 1.36-1.44 0.53-0.88 0.72-2.14h-6.16c0 0 0-5.83-0.01-5.83z"/>
		<path class="s1" d="m369.37 100.08q0-3.22 1.18-6 1.19-2.78 3.3-4.85 2.1-2.06 5.04-3.23 2.93-1.17 6.45-1.17 3.49 0 6.44 1.17 2.95 1.17 5.07 3.23 2.13 2.07 3.32 4.85 1.19 2.78 1.19 6 0 3.22-1.19 5.99-1.19 2.78-3.32 4.85-2.12 2.07-5.07 3.24-2.95 1.16-6.44 1.17-3.52-0.01-6.45-1.17-2.94-1.17-5.04-3.24-2.11-2.07-3.3-4.85-1.18-2.78-1.18-5.99zm7.85 0q0 1.72 0.65 3.18 0.65 1.45 1.76 2.53 1.11 1.07 2.59 1.66 1.47 0.6 3.12 0.6 1.65 0 3.12-0.6 1.48-0.59 2.61-1.66 1.13-1.08 1.78-2.53 0.65-1.46 0.65-3.18 0-1.73-0.65-3.18-0.65-1.46-1.78-2.53-1.13-1.07-2.61-1.67-1.47-0.59-3.12-0.59-1.65 0-3.12 0.59-1.48 0.6-2.59 1.67-1.11 1.07-1.76 2.53-0.65 1.45-0.65 3.18z"/>
	</g>
</svg>